<?xml version="1.0" encoding="UTF-8"?>
<svg width="41.861mm" height="7.0425mm" version="1.1" viewBox="0 0 41.861 7.0425" xmlns="http://www.w3.org/2000/svg" xmlns:cc="http://creativecommons.org/ns#" xmlns:dc="http://purl.org/dc/elements/1.1/" xmlns:rdf="http://www.w3.org/1999/02/22-rdf-syntax-ns#" xmlns:xlink="http://www.w3.org/1999/xlink">
<defs>
<linearGradient id="a" x1="62.82" x2="76.036" y1="53.485" y2="53.485" gradientUnits="userSpaceOnUse">
<stop offset="0"/>
<stop stop-opacity="0" offset="1"/>
</linearGradient>
</defs>
<metadata>
<rdf:RDF>
<cc:Work rdf:about="">
<dc:format>image/svg+xml</dc:format>
<dc:type rdf:resource="http://purl.org/dc/dcmitype/StillImage"/>
<dc:title/>
</cc:Work>
</rdf:RDF>
</metadata>
<g transform="translate(-34.175 -50.141)">
<g transform="matrix(.12706 0 0 .074007 33.539 50.314)" fill="#f8f8f8" opacity=".8">
<path d="m6.5 45.96c-0.829 0-1.5 0.671-1.5 1.5v5.079c0 0.829 0.671 1.5 1.5 1.5s1.5-0.671 1.5-1.499v-5.08c0-0.828-0.671-1.5-1.5-1.5z"/>
<path d="m12.3 41.522c-0.829 0-1.5 0.671-1.5 1.5v13.955c0 0.829 0.671 1.5 1.5 1.5s1.5-0.671 1.5-1.5v-13.955c0-0.828-0.672-1.5-1.5-1.5z"/>
<path d="m18.1 44.622c-0.829 0-1.5 0.671-1.5 1.5v7.756c0 0.829 0.671 1.5 1.5 1.5s1.5-0.671 1.5-1.5v-7.756c0-0.829-0.671-1.5-1.5-1.5z"/>
<path d="m23.9 34.843c-0.829 0-1.5 0.671-1.5 1.5v27.313c0 0.829 0.671 1.5 1.5 1.5s1.5-0.671 1.5-1.5v-27.313c0-0.828-0.671-1.5-1.5-1.5z"/>
<path d="m29.7 28.604c-0.829 0-1.5 0.671-1.5 1.5v39.791c0 0.829 0.671 1.5 1.5 1.5s1.5-0.671 1.5-1.5v-39.791c0-0.828-0.671-1.5-1.5-1.5z"/>
<path d="m35.5 7.18c-0.829 0-1.5 0.671-1.5 1.5v82.64c0 0.829 0.671 1.5 1.5 1.5s1.5-0.671 1.5-1.5v-82.64c0-0.828-0.671-1.5-1.5-1.5z"/>
<path d="m41.3 13.768c-0.829 0-1.5 0.671-1.5 1.5v69.465c0 0.829 0.671 1.5 1.5 1.5s1.5-0.671 1.5-1.5v-69.465c0-0.829-0.672-1.5-1.5-1.5z"/>
<path d="m47.1 20.849c-0.829 0-1.5 0.671-1.5 1.5v55.303c0 0.829 0.671 1.5 1.5 1.5s1.5-0.671 1.5-1.5v-55.303c0-0.829-0.671-1.5-1.5-1.5z"/>
<path d="m52.9 30.88c-0.829 0-1.5 0.671-1.5 1.5v35.24c0 0.829 0.671 1.5 1.5 1.5s1.5-0.671 1.5-1.5v-35.24c0-0.829-0.671-1.5-1.5-1.5z"/>
<path d="m58.7 40.744c-0.829 0-1.5 0.671-1.5 1.5v15.512c0 0.829 0.671 1.5 1.5 1.5s1.5-0.671 1.5-1.5v-15.512c0-0.828-0.671-1.5-1.5-1.5z"/>
<path d="m64.5 33.457c-0.829 0-1.5 0.671-1.5 1.5v30.087c0 0.829 0.671 1.5 1.5 1.5s1.5-0.671 1.5-1.5v-30.087c0-0.829-0.671-1.5-1.5-1.5z"/>
<path d="m70.3 39.529c-0.829 0-1.5 0.671-1.5 1.5v17.942c0 0.829 0.671 1.5 1.5 1.5s1.5-0.671 1.5-1.5v-17.942c0-0.829-0.672-1.5-1.5-1.5z"/>
<path d="m76.1 43.442c-0.829 0-1.5 0.671-1.5 1.5v10.116c0 0.829 0.671 1.5 1.5 1.5s1.5-0.671 1.5-1.5v-10.116c0-0.829-0.671-1.5-1.5-1.5z"/>
<path d="m81.9 41.656c-0.829 0-1.5 0.671-1.5 1.5v13.688c0 0.829 0.671 1.5 1.5 1.5s1.5-0.671 1.5-1.5v-13.688c0-0.828-0.671-1.5-1.5-1.5z"/>
<path d="m87.7 45.96c-0.829 0-1.5 0.671-1.5 1.5v5.079c0 0.829 0.671 1.5 1.5 1.5s1.5-0.671 1.5-1.5v-5.079c0-0.828-0.671-1.5-1.5-1.5z"/>
<path d="m93.5 46.982c-0.829 0-1.5 0.671-1.5 1.5v3.035c0 0.829 0.671 1.5 1.5 1.5s1.5-0.671 1.5-1.5v-3.035c0-0.828-0.671-1.5-1.5-1.5z"/>
</g>
<g fill="url(#a)" stroke-width=".26458px" aria-label="musica">
<path d="m42.107 56.131 0.42333-4.4132 0.62442-0.43392 2.3072 0.62442 2.2331-0.62442 0.635 0.46567 0.22225 4.4027-0.99483 0.05292-0.20108-3.7782-1.4499 0.39158 0.02117 3.3443-0.98425 0.02117-0.03175-3.3761-1.4393-0.40217-0.37042 3.81z"/>
<path d="m53.642 55.655-3.3443 0.55033-0.58208-0.51858 0.254-4.2757 0.99483 0.05292-0.21167 3.6512 2.6564-0.42333 0.22225-3.2914 1.0054 0.08467-0.23283 3.4608 0.89958 0.53975-0.51858 0.84667z"/>
<path d="m55.832 56.268 0.1905-0.98425 2.667 0.508 0.78317-1.3547-3.1538-0.4445-0.42333-0.55033 0.15875-2.0426 0.46567-0.45508 3.3867-0.26458 0.0635 0.99483-2.9422 0.22225-0.09525 1.1642 3.3972 0.48683 0.37042 0.74083-1.3229 2.3072-0.51858 0.23283z"/>
<path d="m61.698 50.405 0.96308-0.26458 0.3175 1.1853-0.96308 0.26458zm-0.26458 6.0008 0.51858-4.2016 0.99483 0.11642-0.51858 4.2016z"/>
<path d="m63.935 55.919 0.48683-4.6567 0.5715-0.43392 3.3972 0.55033-0.15875 0.98425-2.8681-0.46567-0.381 3.5031 3.5348-0.42333 0.11642 0.99483-4.1592 0.48683z"/>
<path d="m74.713 56.247-0.1905-0.22225-4.3709 0.6985-0.5715-0.60325 0.61383-2.4236 0.47625-0.381h3.3443l-0.22225-1.651-3.81 0.93133-0.24342-0.96308 4.3498-1.0689 0.61383 0.42333 0.59267 4.3921 0.74083 0.21167-0.26458 0.9525zm-0.46567-1.1959-0.09525-0.73025h-3.0903l-0.32808 1.2912z"/>
</g>
</g>
</svg>
